<?xml version="1.0" encoding="utf-8"?>
<!-- Generator: Adobe Illustrator 26.3.1, SVG Export Plug-In . SVG Version: 6.00 Build 0)  -->
<svg version="1.1" id="Ebene_1" xmlns="http://www.w3.org/2000/svg" xmlns:xlink="http://www.w3.org/1999/xlink" x="0px" y="0px"
	 viewBox="0 0 24 24" style="enable-background:new 0 0 24 24;" xml:space="preserve">
<style type="text/css">
	.st0{stroke:#000000;stroke-width:1.5;stroke-linecap:round;stroke-linejoin:round;}
	.st1{fill:none;stroke:#000000;stroke-width:1.5;stroke-linecap:round;stroke-linejoin:round;}
	.st2{fill:#FFFFFF;}
	.st3{fill:#3C4043;}
	.st4{fill:#4285F4;}
	.st5{fill:#34A853;}
	.st6{fill:#FABB05;}
	.st7{fill:#E94235;}
</style>
<g>
	<path id="XMLID_4_" d="M21.6,4.5H2.4c-0.1,0-0.2,0-0.2,0c-0.1,0-0.1,0-0.2,0c-0.1,0-0.3,0-0.4,0c-0.1,0-0.3,0.1-0.4,0.1
		C1,4.8,0.9,4.9,0.8,5C0.7,5.1,0.6,5.2,0.5,5.3C0.4,5.5,0.4,5.6,0.4,5.7c0,0.1,0,0.3,0,0.4c0,0.1,0,0.1,0,0.2c0,0.1,0,0.2,0,0.2
		v10.8c0,0.1,0,0.2,0,0.2c0,0.1,0,0.1,0,0.2c0,0.1,0,0.3,0,0.4c0,0.1,0.1,0.3,0.1,0.4c0.1,0.1,0.2,0.3,0.3,0.4
		c0.1,0.1,0.2,0.2,0.4,0.3c0.1,0.1,0.3,0.1,0.4,0.1c0.1,0,0.3,0,0.4,0c0.1,0,0.1,0,0.2,0c0.1,0,0.2,0,0.2,0h19.2c0.1,0,0.2,0,0.2,0
		c0.1,0,0.1,0,0.2,0c0.1,0,0.3,0,0.4,0c0.1,0,0.3-0.1,0.4-0.1c0.1-0.1,0.3-0.2,0.4-0.3c0.1-0.1,0.2-0.2,0.3-0.4
		c0.1-0.1,0.1-0.3,0.1-0.4c0-0.1,0-0.3,0-0.4c0-0.1,0-0.1,0-0.2c0-0.1,0-0.2,0-0.2V6.6c0-0.1,0-0.2,0-0.2c0-0.1,0-0.1,0-0.2
		c0-0.1,0-0.3,0-0.4c0-0.1-0.1-0.3-0.1-0.4c-0.1-0.1-0.2-0.3-0.3-0.4c-0.1-0.1-0.2-0.2-0.4-0.3c-0.1-0.1-0.3-0.1-0.4-0.1
		c-0.1,0-0.3,0-0.4,0c-0.1,0-0.1,0-0.2,0C21.7,4.5,21.7,4.5,21.6,4.5L21.6,4.5z"/>
	<path id="XMLID_3_" class="st2" d="M21.6,5l0.2,0c0.1,0,0.1,0,0.2,0c0.1,0,0.2,0,0.4,0c0.1,0,0.2,0,0.3,0.1c0.1,0,0.2,0.1,0.2,0.2
		C23,5.4,23,5.5,23.1,5.5c0,0.1,0.1,0.2,0.1,0.3c0,0.1,0,0.3,0,0.4c0,0.1,0,0.1,0,0.2c0,0.1,0,0.2,0,0.2v10.8c0,0.1,0,0.2,0,0.2
		c0,0.1,0,0.1,0,0.2c0,0.1,0,0.2,0,0.4c0,0.1,0,0.2-0.1,0.3c0,0.1-0.1,0.2-0.2,0.2c-0.1,0.1-0.1,0.1-0.2,0.2c-0.1,0-0.2,0.1-0.3,0.1
		c-0.1,0-0.3,0-0.4,0c-0.1,0-0.1,0-0.2,0c-0.1,0-0.2,0-0.2,0H2.4c0,0,0,0,0,0c-0.1,0-0.2,0-0.2,0C2.1,19,2,19,2,19
		c-0.1,0-0.2,0-0.4,0c-0.1,0-0.2,0-0.3-0.1c-0.1,0-0.2-0.1-0.2-0.2C1,18.6,1,18.5,0.9,18.5c0-0.1-0.1-0.2-0.1-0.3c0-0.1,0-0.3,0-0.4
		c0-0.1,0-0.1,0-0.2l0-0.2l0,0V6.6l0,0l0-0.2c0-0.1,0-0.1,0-0.2c0-0.1,0-0.2,0-0.4c0-0.1,0-0.2,0.1-0.3C1,5.5,1,5.4,1.1,5.3
		c0.1-0.1,0.1-0.1,0.2-0.2c0.1,0,0.2-0.1,0.3-0.1C1.7,5,1.9,5,2,5c0.1,0,0.1,0,0.2,0l0.2,0L21.6,5"/>
	<g>
		<g>
			<path d="M6.7,9.6C6.9,9.3,7,9,7,8.6c-0.3,0-0.6,0.2-0.9,0.4C6,9.3,5.8,9.6,5.8,10C6.2,10,6.5,9.8,6.7,9.6"/>
			<path d="M7,10c-0.5,0-0.9,0.3-1.1,0.3c-0.2,0-0.6-0.3-1-0.2c-0.5,0-0.9,0.3-1.2,0.7c-0.5,0.9-0.1,2.2,0.4,2.9
				C4.3,14,4.6,14.4,5,14.4c0.4,0,0.5-0.2,0.9-0.2c0.4,0,0.6,0.2,1,0.2c0.4,0,0.6-0.4,0.9-0.7c0.3-0.4,0.4-0.8,0.4-0.8
				c0,0-0.8-0.3-0.8-1.2c0-0.7,0.6-1.1,0.6-1.1C7.7,10.1,7.2,10,7,10"/>
		</g>
		<g>
			<path d="M11.1,9c1,0,1.8,0.7,1.8,1.8c0,1-0.7,1.8-1.8,1.8H10v1.8H9.1V9L11.1,9L11.1,9z M10,11.9h1c0.7,0,1.1-0.4,1.1-1.1
				c0-0.7-0.4-1.1-1.1-1.1h-1V11.9z"/>
			<path d="M13.1,13.3c0-0.7,0.5-1.1,1.4-1.2l1.1-0.1v-0.3c0-0.4-0.3-0.7-0.8-0.7c-0.5,0-0.8,0.2-0.8,0.6h-0.8
				c0-0.7,0.6-1.2,1.6-1.2c0.9,0,1.5,0.5,1.5,1.3v2.7h-0.8v-0.6h0c-0.2,0.4-0.7,0.7-1.2,0.7C13.7,14.4,13.1,14,13.1,13.3z
				 M15.6,12.9v-0.3l-1,0.1c-0.5,0-0.7,0.2-0.7,0.6c0,0.3,0.3,0.6,0.7,0.6C15.2,13.8,15.6,13.4,15.6,12.9z"/>
			<path d="M17.2,15.8v-0.6c0.1,0,0.2,0,0.3,0c0.4,0,0.6-0.2,0.7-0.6c0,0,0.1-0.2,0.1-0.2l-1.4-3.9h0.9l1,3.2h0l1-3.2h0.8L19,14.6
				c-0.3,0.9-0.7,1.2-1.5,1.2C17.4,15.8,17.2,15.8,17.2,15.8z"/>
		</g>
	</g>
</g>
</svg>
