<?xml version="1.0" encoding="utf-8"?>
<!-- Generator: Adobe Illustrator 26.3.1, SVG Export Plug-In . SVG Version: 6.00 Build 0)  -->
<svg version="1.1" id="Ebene_1" xmlns="http://www.w3.org/2000/svg" xmlns:xlink="http://www.w3.org/1999/xlink" x="0px" y="0px"
	 viewBox="0 0 24 24" style="enable-background:new 0 0 24 24;" xml:space="preserve">
<style type="text/css">
	.st0{stroke:#000000;stroke-width:1.5;stroke-linecap:round;stroke-linejoin:round;}
	.st1{fill:none;stroke:#000000;stroke-width:1.5;stroke-linecap:round;stroke-linejoin:round;}
	.st2{fill:#FFFFFF;}
	.st3{fill:#3C4043;}
	.st4{fill:#4285F4;}
	.st5{fill:#34A853;}
	.st6{fill:#FABB05;}
	.st7{fill:#E94235;}
</style>
<g>
	<path id="Base_1_" class="st2" d="M17.4,5.9H6.6c-3.3,0-6.1,2.7-6.1,6.1l0,0c0,3.3,2.7,6.1,6.1,6.1h10.7c3.3,0,6.1-2.7,6.1-6.1l0,0
		C23.4,8.7,20.7,5.9,17.4,5.9z"/>
	<path id="Outline" class="st3" d="M17.4,6.4c0.8,0,1.5,0.1,2.2,0.4c0.7,0.3,1.3,0.7,1.8,1.2c0.5,0.5,0.9,1.1,1.2,1.8
		c0.3,0.7,0.4,1.4,0.4,2.2s-0.1,1.5-0.4,2.2c-0.3,0.7-0.7,1.3-1.2,1.8c-0.5,0.5-1.1,0.9-1.8,1.2c-0.7,0.3-1.4,0.4-2.2,0.4H6.6
		c-0.8,0-1.5-0.1-2.2-0.4c-0.7-0.3-1.3-0.7-1.8-1.2c-0.5-0.5-0.9-1.1-1.2-1.8c-0.3-0.7-0.4-1.4-0.4-2.2s0.1-1.5,0.4-2.2
		c0.3-0.7,0.7-1.3,1.2-1.8c0.5-0.5,1.1-0.9,1.8-1.2c0.7-0.3,1.4-0.4,2.2-0.4L17.4,6.4 M17.4,5.9H6.6c-3.3,0-6.1,2.7-6.1,6.1l0,0
		c0,3.3,2.7,6.1,6.1,6.1h10.7c3.3,0,6.1-2.7,6.1-6.1l0,0C23.4,8.7,20.7,5.9,17.4,5.9L17.4,5.9z"/>
	<g id="G_Pay_Lockup_1_">
		<g id="Pay_Typeface_3_">
			<path id="Letter_p_3_" class="st3" d="M11.5,12.4v1.8h-0.6V9.7h1.5c0.4,0,0.7,0.1,1,0.4c0.3,0.3,0.4,0.6,0.4,1
				c0,0.4-0.1,0.7-0.4,1c-0.3,0.3-0.6,0.4-1,0.4L11.5,12.4L11.5,12.4z M11.5,10.3v1.6h1c0.2,0,0.4-0.1,0.6-0.2
				c0.2-0.2,0.2-0.3,0.2-0.6c0-0.2-0.1-0.4-0.2-0.6c-0.2-0.2-0.3-0.2-0.6-0.2L11.5,10.3L11.5,10.3z"/>
			<path id="Letter_a_3_" class="st3" d="M15.4,11.1c0.4,0,0.8,0.1,1,0.3c0.2,0.2,0.4,0.5,0.4,0.9v1.9h-0.6v-0.4h0
				c-0.2,0.4-0.6,0.5-1,0.5c-0.3,0-0.6-0.1-0.9-0.3c-0.2-0.2-0.3-0.5-0.3-0.8c0-0.3,0.1-0.6,0.4-0.8c0.2-0.2,0.6-0.3,1-0.3
				c0.3,0,0.6,0.1,0.9,0.2v-0.1c0-0.2-0.1-0.4-0.2-0.5c-0.2-0.1-0.3-0.2-0.6-0.2c-0.3,0-0.6,0.1-0.8,0.4l-0.5-0.3
				C14.4,11.3,14.8,11.1,15.4,11.1z M14.6,13.3c0,0.2,0.1,0.3,0.2,0.4c0.1,0.1,0.3,0.2,0.5,0.2c0.2,0,0.5-0.1,0.7-0.3
				c0.2-0.2,0.3-0.4,0.3-0.6c-0.2-0.1-0.4-0.2-0.8-0.2c-0.2,0-0.4,0.1-0.6,0.2C14.7,13,14.6,13.1,14.6,13.3z"/>
			<path id="Letter_y_3_" class="st3" d="M19.9,11.2L18,15.6h-0.6l0.7-1.6l-1.3-2.9h0.6l0.9,2.2h0l0.9-2.2H19.9z"/>
		</g>
		<g id="G_Mark_1_">
			<path id="Blue_500" class="st4" d="M9.1,12.1c0-0.2,0-0.4,0-0.5H6.7v1l1.4,0c-0.1,0.3-0.2,0.6-0.5,0.8V14h0.8
				C8.9,13.5,9.1,12.9,9.1,12.1z"/>
			<path id="Green_500_1_" class="st5" d="M7.5,13.3c-0.2,0.2-0.5,0.2-0.9,0.2c-0.7,0-1.3-0.5-1.5-1.1H4.3v0.7
				c0.4,0.9,1.3,1.4,2.3,1.4c0.7,0,1.3-0.2,1.7-0.6L7.5,13.3z"/>
			<path id="Yellow_500_1_" class="st6" d="M5.1,12c0-0.2,0-0.3,0.1-0.5v-0.7H4.3c-0.2,0.4-0.3,0.7-0.3,1.2c0,0.4,0.1,0.8,0.3,1.2
				l0.9-0.7C5.1,12.3,5.1,12.2,5.1,12z"/>
			<path id="Red_500" class="st7" d="M6.7,10.4c0.4,0,0.7,0.1,1,0.4l0.7-0.7c-0.5-0.4-1-0.7-1.7-0.7c-1,0-1.9,0.6-2.3,1.4l0.9,0.7
				C5.4,10.9,6,10.4,6.7,10.4z"/>
		</g>
	</g>
</g>
</svg>
